<!-- icon666.com - MILLIONS vector ICONS FREE --><svg viewBox="0 0 512 512" xmlns="http://www.w3.org/2000/svg"><g id="Layer_2" data-name="Layer 2"><g id="Layer_1-2" data-name="Layer 1"><g id="K"><rect fill="#4b5896" height="512" rx="86.57" width="512" style="fill: rgb(255, 255, 255);"></rect><path d="m425.43 0h-36.43v34.43a86.57 86.57 0 0 0 86.57 86.57h36.43v-34.43a86.57 86.57 0 0 0 -86.57-86.57z" fill="#656faa" style="fill: rgb(0, 0, 255);"></path><path d="m96 57a363.32 363.32 0 0 0 -94.29 12.37 87 87 0 0 0 -1.71 17.2v338.86a86.57 86.57 0 0 0 86.57 86.57h338.86a86.61 86.61 0 0 0 22.57-3 363.73 363.73 0 0 0 11-89c0-200.48-162.52-363-363-363z" fill="#656faa" style="fill: rgb(0, 0, 255);"></path><path d="m296.97 406-88.37-111.32v111.32h-74v-300h74v112.65l81.28-112.65h87.22l-111.81 147.79 123.05 152.21z" fill="#fff" style="fill: rgb(255, 255, 255);"></path><path d="m301.8 396-103.2-130v130h-54v-280h54v133.6l96.4-133.6h62l-104.4 138 114.8 142z" fill="#4b5896" style="fill: rgb(255, 255, 255);"></path></g></g></g></svg>